<svg width="24" height="24" viewBox="0 0 24 24" fill="none" xmlns="http://www.w3.org/2000/svg">
<path d="M6.30071 11.3625L17.607 4.4437C17.7212 4.37322 17.8523 4.33469 17.9865 4.33214C18.1207 4.32958 18.2531 4.36309 18.37 4.42918C18.4868 4.49526 18.5838 4.59149 18.6508 4.70783C18.7177 4.82417 18.7522 4.95635 18.7507 5.09058V18.9093C18.7522 19.0436 18.7177 19.1757 18.6508 19.2921C18.5838 19.4084 18.4868 19.5046 18.37 19.5707C18.2531 19.6368 18.1207 19.6703 17.9865 19.6678C17.8523 19.6652 17.7212 19.6267 17.607 19.5562L6.30071 12.6375C6.19218 12.5702 6.10262 12.4763 6.04051 12.3648C5.9784 12.2532 5.9458 12.1276 5.9458 12C5.9458 11.8723 5.9784 11.7467 6.04051 11.6351C6.10262 11.5236 6.19218 11.4297 6.30071 11.3625Z" fill="#D9D9D9" stroke="#DADADA" stroke-width="2" stroke-linecap="round" stroke-linejoin="round"/>
<path d="M5.25 3.75V20.25" stroke="#D9D9D9" stroke-width="2" stroke-linecap="round" stroke-linejoin="round"/>
</svg>
