<svg width="24" height="24" viewBox="0 0 24 24" fill="none" xmlns="http://www.w3.org/2000/svg">
<path d="M17.7 11.3625L6.3938 4.4437C6.27955 4.37322 6.14849 4.33469 6.01428 4.33214C5.88006 4.32958 5.74762 4.36309 5.63078 4.42918C5.51394 4.49526 5.41697 4.59149 5.35 4.70783C5.28303 4.82417 5.24851 4.95635 5.25005 5.09058V18.9093C5.24851 19.0436 5.28303 19.1757 5.35 19.2921C5.41697 19.4084 5.51394 19.5046 5.63078 19.5707C5.74762 19.6368 5.88006 19.6703 6.01428 19.6678C6.14849 19.6652 6.27955 19.6267 6.3938 19.5562L17.7 12.6375C17.8086 12.5702 17.8981 12.4763 17.9603 12.3648C18.0224 12.2532 18.055 12.1276 18.055 12C18.055 11.8723 18.0224 11.7467 17.9603 11.6351C17.8981 11.5236 17.8086 11.4297 17.7 11.3625Z" fill="#D9D9D9" stroke="#D9D9D9" stroke-width="2" stroke-linecap="round" stroke-linejoin="round"/>
<path d="M18.75 3.75V20.25" stroke="#D9D9D9" stroke-width="2" stroke-linecap="round" stroke-linejoin="round"/>
</svg>
